<svg xmlns="http://www.w3.org/2000/svg" xmlns:xlink="http://www.w3.org/1999/xlink" version="1.1" id="Layer_1" x="0px" y="0px" width="100px" height="100px" viewBox="0 0 100 100" enable-background="new 0 0 100 100" xml:space="preserve">
<path fill="#B6CF00" d="M49.952,0C22.365,0,0,22.365,0,49.952C0,77.54,22.365,99.905,49.952,99.905c27.588,0,49.953-22.365,49.953-49.953  C99.905,22.365,77.54,0,49.952,0z M56.475,77.75v0.758c-0.167,3.054-0.591,4.409-1.86,5.597c-1.271,1.184-2.883,1.868-4.662,1.868  c-4.068,0-6.44-2.885-6.44-7.8V78v-0.25c-3.729-1.188-5.762-2.035-7.881-3.478c-4.236-2.711-6.356-5.847-6.356-9.404  c0-3.731,2.542-6.528,6.019-6.528c2.033,0,3.812,0.849,6.185,2.712c5.168,4.325,6.271,4.916,9.32,4.916  c3.816,0,6.698-2.71,6.698-6.186c0-3.56-2.544-5.677-8.985-7.205l-6.948-1.692c-6.865-1.695-11.101-6.951-11.101-13.731  c0-4.999,2.119-9.659,5.763-12.457c1.864-1.441,3.643-2.374,6.863-3.644c0.084-1.78,0.338-2.711,0.762-3.729  c1.102-2.035,3.392-3.39,5.764-3.39c3.644,0,6.102,2.543,6.441,6.693l1.441,0.51c3.811,1.186,5.508,2.118,7.372,3.729  c2.204,2.033,3.219,3.982,3.219,6.186c0,3.389-2.628,6.186-5.677,6.186c-1.186,0-2.541-0.425-3.645-1.271  c-0.338-0.254-1.355-1.017-2.882-2.288c-2.204-1.695-3.98-2.373-6.27-2.373c-3.56,0-6.187,2.119-6.187,5.17  c0,1.865,1.017,3.133,3.136,4.068c0.848,0.423,1.948,0.679,5.763,1.609c12.881,2.881,18.307,8.221,18.307,17.879  C70.633,68.598,64.783,75.968,56.475,77.75z"/>
</svg>
