<?xml version="1.0" encoding="UTF-8" standalone="no"?>
<svg width="101px" height="101px" viewBox="0 0 101 101" version="1.1" xmlns="http://www.w3.org/2000/svg" xmlns:xlink="http://www.w3.org/1999/xlink" xmlns:sketch="http://www.bohemiancoding.com/sketch/ns">
    <title>Slice 1</title>
    <description>Created with Sketch (http://www.bohemiancoding.com/sketch)</description>
    <defs></defs>
    <g id="Page 1" stroke="none" stroke-width="1" fill="none" fill-rule="evenodd">
        <g id="Layer_1" fill="#B6CF00">
            <path d="M93.556,43.556 C90.203,43.556 87.397,45.946 86.752,49.113 L78.207,49.113 C77.881,42.49 75.248,36.492 71.078,31.886 L77.233,25.734 C78.331,26.461 79.642,26.889 81.055,26.889 C84.884,26.889 87.999,23.774 87.999,19.945 C88,16.116 84.885,13 81.056,13 C77.227,13 74.112,16.116 74.112,19.944 C74.112,21.358 74.541,22.671 75.27,23.769 L69.115,29.921 C64.511,25.753 58.511,23.12 51.889,22.792 L51.889,14.247 C55.055,13.601 57.445,10.796 57.445,7.443 C57.445,3.614 54.33,0.499 50.501,0.499 C46.672,0.499 43.557,3.615 43.557,7.443 C43.557,10.796 45.947,13.601 49.113,14.247 L49.113,22.792 C42.49,23.12 36.492,25.752 31.886,29.921 L25.733,23.769 C26.461,22.67 26.89,21.357 26.89,19.944 C26.89,16.115 23.775,13 19.946,13 C16.116,13 13,16.116 13,19.944 C13,23.773 16.116,26.888 19.944,26.888 C21.357,26.888 22.669,26.46 23.767,25.733 L29.921,31.885 C25.753,36.491 23.12,42.489 22.792,49.112 L14.249,49.112 C13.604,45.945 10.798,43.555 7.445,43.555 C3.616,43.555 0.501,46.67 0.501,50.499 C0.501,54.328 3.617,57.443 7.445,57.443 C10.798,57.443 13.603,55.053 14.249,51.889 L22.793,51.889 C23.121,58.51 25.753,64.509 29.922,69.113 L23.768,75.268 C22.67,74.539 21.357,74.11 19.944,74.11 C16.115,74.11 13,77.225 13,81.054 C13,84.883 16.116,88 19.944,88 C23.773,88 26.888,84.885 26.888,81.056 C26.888,79.643 26.459,78.331 25.732,77.234 L31.886,71.079 C36.491,75.249 42.489,77.88 49.111,78.208 L49.111,86.753 C45.945,87.399 43.555,90.204 43.555,93.557 C43.555,97.386 46.67,100.501 50.499,100.501 C54.328,100.501 57.443,97.386 57.443,93.557 C57.443,90.204 55.053,87.399 51.887,86.753 L51.887,78.208 C58.509,77.88 64.506,75.249 69.113,71.079 L75.266,77.234 C74.538,78.332 74.11,79.643 74.11,81.056 C74.11,84.885 77.225,88 81.054,88 C84.883,88 88,84.885 88,81.056 C88,77.227 84.885,74.112 81.056,74.112 C79.643,74.112 78.329,74.541 77.231,75.268 L71.079,69.115 C75.247,64.511 77.88,58.512 78.208,51.891 L86.753,51.891 C87.399,55.055 90.204,57.445 93.557,57.445 C97.386,57.445 100.501,54.33 100.501,50.501 C100.501,46.672 97.385,43.556 93.556,43.556 L93.556,43.556 Z M81.056,15.778 C83.354,15.778 85.223,17.647 85.223,19.945 C85.223,22.243 83.354,24.112 81.056,24.112 C78.758,24.112 76.889,22.243 76.889,19.945 C76.889,17.647 78.758,15.778 81.056,15.778 L81.056,15.778 Z M19.944,24.111 C17.647,24.111 15.777,22.242 15.777,19.944 C15.777,17.647 17.646,15.777 19.944,15.777 C22.242,15.777 24.111,17.646 24.111,19.944 C24.111,22.242 22.242,24.111 19.944,24.111 L19.944,24.111 Z M7.444,54.667 C5.147,54.667 3.277,52.798 3.277,50.5 C3.277,48.202 5.146,46.333 7.444,46.333 C9.742,46.333 11.611,48.202 11.611,50.5 C11.611,52.798 9.742,54.667 7.444,54.667 L7.444,54.667 Z M19.944,85.223 C17.647,85.223 15.777,83.354 15.777,81.056 C15.777,78.758 17.646,76.889 19.944,76.889 C22.242,76.889 24.111,78.758 24.111,81.056 C24.111,83.354 22.242,85.223 19.944,85.223 L19.944,85.223 Z M46.333,7.444 C46.333,5.147 48.202,3.277 50.5,3.277 C52.798,3.277 54.667,5.146 54.667,7.444 C54.667,9.742 52.798,11.611 50.5,11.611 C48.202,11.611 46.333,9.742 46.333,7.444 L46.333,7.444 Z M54.667,93.556 C54.667,95.854 52.798,97.723 50.5,97.723 C48.202,97.723 46.333,95.854 46.333,93.556 C46.333,91.258 48.202,89.389 50.5,89.389 C52.798,89.389 54.667,91.258 54.667,93.556 L54.667,93.556 Z M81.056,76.889 C83.354,76.889 85.223,78.758 85.223,81.056 C85.223,83.354 83.354,85.223 81.056,85.223 C78.758,85.223 76.889,83.354 76.889,81.056 C76.889,78.758 78.758,76.889 81.056,76.889 L81.056,76.889 Z M93.556,54.667 C91.258,54.667 89.389,52.798 89.389,50.5 C89.389,48.202 91.258,46.333 93.556,46.333 C95.854,46.333 97.723,48.202 97.723,50.5 C97.723,52.798 95.854,54.667 93.556,54.667 L93.556,54.667 Z M50.666,61.5 C44.8755032,61.5 40.166,56.7904968 40.166,51 C40.166,45.2095032 44.8755032,40.5 50.666,40.5 C56.4564968,40.5 61.166,45.2095032 61.166,51 C61.166,56.7904968 56.4564968,61.5 50.666,61.5 L50.666,61.5 Z M50.666,61.5" id="Shape"></path>
        </g>
    </g>
</svg>
