<?xml version="1.0" encoding="UTF-8" standalone="no"?>
<svg width="382px" height="398px" viewBox="0 0 382 398" version="1.1" xmlns="http://www.w3.org/2000/svg" xmlns:xlink="http://www.w3.org/1999/xlink" xmlns:sketch="http://www.bohemiancoding.com/sketch/ns">
    <title>Slice 1</title>
    <description>Created with Sketch (http://www.bohemiancoding.com/sketch)</description>
    <defs></defs>
    <g id="Page 1" stroke="none" stroke-width="1" fill="none" fill-rule="evenodd">
        <g id="Layer_1">
            <g id="g3">
                <path d="M12.713,13.627 C8.97,19.694 5.68,28.023 5.099,34.567 C4.846,37.422 6.13,40.598 5.576,43.131 C5.034,45.603 2.448,47.128 1.767,50.269 C-0.598,61.164 1.767,75.045 1.767,86.007 L1.767,179.553 L1.767,240.638 C1.767,255.211 26.989,260.067 26.989,267.841 C26.989,291.034 26.136,302.554 44.647,317.978 C51.362,323.578 59.613,327.779 67.911,330.543 C75.45,333.062 72.23,349.726 74.204,357.616 C83.586,395.122 143.842,400.973 174.502,395.499 C193.709,392.068 213.505,383.774 225.656,367.9 C232.125,359.452 233.71,350.738 247.306,355.289 C257.223,358.606 265.122,366.502 276.094,369.346 C313.916,379.15 351.956,369.341 372.222,335.543 C383.751,316.309 380.545,291.41 380.545,269.918 L380.545,100.582 C380.545,92.61 379.164,85.038 377.691,77.867 C374.582,62.739 352.1,60.489 338.197,58.833 C331.277,58.008 315.904,60.546 310.119,57.407 C305.5,54.9 307.168,52.532 306.313,48.366 C305.388,43.861 305.639,39.335 301.555,35.517 C295.695,30.043 282.033,29.327 274.43,28.379 C265.875,27.312 263.315,28.651 259.68,22.671 C254.805,14.652 260.795,9.128 248.732,5.776 C229.737,0.5 210.3,-0.002 190.684,0.304 C176.023,0.534 159.61,1.129 145.765,6.403 C132.772,11.352 142.788,18.661 135.959,25.049 C135.043,24.215 134.644,23.441 134.057,22.67 C131.982,19.938 136.108,16.229 132.33,14.068 C129.3,12.338 126.986,11.118 123.71,10.077 C112.181,6.41 100.029,5.392 87.953,5.037 C62.45,4.287 35.962,5.752 12.713,13.627" id="path7" fill="#B6CF00"></path>
                <path d="M12.713,13.627 C8.97,19.694 5.68,28.023 5.099,34.567 C4.846,37.422 6.13,40.598 5.576,43.131 C5.034,45.603 2.448,47.128 1.767,50.269 C-0.598,61.164 1.767,75.045 1.767,86.007 L1.767,179.553 L1.767,240.638 C1.767,255.211 26.989,260.067 26.989,267.841 C26.989,291.034 26.136,302.554 44.647,317.978 C51.362,323.578 59.613,327.779 67.911,330.543 C75.45,333.062 72.23,349.726 74.204,357.616 C83.586,395.122 143.842,400.973 174.502,395.499 C193.709,392.068 213.505,383.774 225.656,367.9 C232.125,359.452 233.71,350.738 247.306,355.289 C257.223,358.606 265.122,366.502 276.094,369.346 C313.916,379.15 351.956,369.341 372.222,335.543 C383.751,316.309 380.545,291.41 380.545,269.918 L380.545,100.582 C380.545,92.61 379.164,85.038 377.691,77.867 C374.582,62.739 352.1,60.489 338.197,58.833 C331.277,58.008 315.904,60.546 310.119,57.407 C305.5,54.9 307.168,52.532 306.313,48.366 C305.388,43.861 305.639,39.335 301.555,35.517 C295.695,30.043 282.033,29.327 274.43,28.379 C265.875,27.312 263.315,28.651 259.68,22.671 C254.805,14.652 260.795,9.128 248.732,5.776 C229.737,0.5 210.3,-0.002 190.684,0.304 C176.023,0.534 159.61,1.129 145.765,6.403 C132.772,11.352 142.788,18.661 135.959,25.049 C135.043,24.215 134.644,23.441 134.057,22.67 C131.982,19.938 136.108,16.229 132.33,14.068 C129.3,12.338 126.986,11.118 123.71,10.077 C112.397,6.477 100.68,5.611 88.851,5.062 C64.679,3.942 34.915,3.224 12.714,14.103" id="path9" stroke="#B6CF00" stroke-width="0.4"></path>
                <path d="M81.712,97.854 C93.029,103.867 106.606,104.895 118.352,109.274 C111.781,107.892 85.181,101.846 82.188,108.324 C76.068,121.575 123.776,126.661 131.2,126.882 C126.414,133.325 85.787,126.198 79.332,119.744 C74.693,115.104 75.606,101.404 81.712,97.854" id="path11" opacity="0.25" fill="#F3F3F3"></path>
                <path d="M232.559,356.241 C238.163,356.393 245.431,356.068 250.166,357.192 C254.747,342.271 251.593,322.085 251.593,306.337 L251.593,235.67 C251.593,213.029 251.114,190.394 251.114,167.752 C251.114,158.477 256.141,118.28 249.213,113.083 C279.605,116.619 308.398,117.904 339.114,114.616 C342.682,114.233 378.525,106.974 374.835,101.187 C373.497,99.089 360.179,105.696 357.232,106.419 C328.194,113.538 289.154,117.007 260.086,108.994 C256.596,108.029 227.19,98.108 239.695,96.902 C242.985,96.584 251.066,101.623 254.444,102.612 C261.633,104.722 268.896,105.391 276.337,105.945 C272.372,104.992 268.404,104.042 264.441,103.089 C271.964,99.297 279.535,99.281 287.754,99.281 C273.172,98.124 251.275,97.093 238.742,88.814 C228.607,82.12 228.486,72.078 239.932,67.162 C255.921,60.296 273.19,59.876 290.133,57.885 C298.777,56.869 300.979,55.361 306.314,48.367 C280.575,64.033 240.851,59.931 212.041,58.007 C202.649,57.38 172.323,56.75 173.55,42.179 C174.474,31.196 202.718,27.885 211.618,27.904 C186.473,27.904 159.488,28.404 136.434,18.387 C139.859,23.285 128.33,27.144 120.969,28.62 C115.515,29.709 110.576,31.845 105.028,32.188 C121.466,34.454 149.802,32.966 164.033,44.084 C181.52,57.744 149.497,65.181 139.764,66.924 C159.374,65.26 221.456,62.658 229.225,86.434 C230.716,90.997 225.578,96.667 230.651,100.471 C239.932,107.432 225.401,115.383 220.73,117.507 C203.15,125.5 186.122,128.385 166.888,129.261 C168.456,140.832 224.954,126.796 232.557,119.743 C232.559,198.238 232.559,279.347 232.559,356.241" id="path13" opacity="0.25" fill="#F3F3F3"></path>
                <path d="M195.917,26.952 C208.106,27.533 249.157,29.901 255.872,16.485 C260.469,7.305 203.189,4.11 197.477,4.11 C189.234,4.11 136.337,3.353 135.958,15.532 C135.596,27.21 189.025,28.537 195.917,26.952" id="path15" fill="#E6E6E6"></path>
                <path d="M195.917,26.952 C208.106,27.533 249.157,29.901 255.872,16.485 C260.469,7.305 203.189,4.11 197.477,4.11 C188.105,4.11 139.216,2.503 136.198,14.58 C133.168,26.7 188.633,27.522 195.917,27.429" id="path17" stroke="#B6CF00" stroke-width="0.2"></path>
                <path d="M71.243,33.614 C78.762,33.614 133.78,33.626 133.104,21.241 C132.37,7.809 80.794,8.395 71.719,8.395 C63.174,8.395 9.886,8.277 10.335,21.242 C10.79,34.371 64.174,33.614 71.243,33.614" id="path19" fill="#E6E6E6"></path>
                <path d="M71.243,33.614 C78.762,33.614 133.78,33.626 133.104,21.241 C132.37,7.809 80.794,8.395 71.719,8.395 C63.174,8.395 9.886,8.277 10.335,21.242 C10.787,34.3 62.961,33.614 71.719,33.614" id="path21" stroke="#B6CF00" stroke-width="0.2"></path>
                <path d="M101.696,68.351 C111.149,68.351 168.952,69.489 168.792,54.075 C168.629,38.413 107.903,39.8 98.32,39.8 C91.645,39.8 30.43,42.467 35.553,55.265 C41.082,69.07 92.005,70.934 101.696,68.351" id="path23" fill="#E6E6E6"></path>
                <path d="M101.696,68.351 C111.149,68.351 168.952,69.489 168.792,54.075 C168.634,38.885 110.368,39.8 101.034,39.8 C92.054,39.8 35.231,39.326 35.077,54.075 C34.919,69.215 93.081,68.432 102.173,68.827" id="path25" stroke="#B6CF00" stroke-width="0.2"></path>
                <path d="M238.743,59.786 C252.048,59.786 297.254,61.729 303.457,46.224 C308.704,33.123 247.006,30.758 239.882,30.758 C225.62,30.758 181.871,28.414 174.028,44.084 C167.933,56.257 232.471,59.786 238.743,59.786" id="path27" fill="#E6E6E6"></path>
                <path d="M238.743,59.786 C252.048,59.786 297.254,61.729 303.457,46.224 C308.704,33.123 247.006,30.758 239.882,30.758 C225.62,30.758 181.871,28.414 174.028,44.084 C167.933,56.257 232.471,59.786 238.743,59.786" id="path29" stroke="#B6CF00" stroke-width="0.2"></path>
                <path d="M153.09,110.227 C165.073,110.227 229.407,110.246 228.753,91.193 C228.102,72.284 164.866,71.724 152.279,72.207 C141.902,72.607 73.06,74.257 78.381,92.859 C83.741,111.591 139.828,110.227 153.09,110.227" id="path31" fill="#E6E6E6"></path>
                <path d="M153.09,110.227 C165.073,110.227 229.407,110.246 228.753,91.193 C228.102,72.284 164.866,71.724 152.279,72.207 C139.862,72.686 78.536,72.119 77.904,91.193 C77.274,110.154 141.634,110.227 153.566,110.227" id="path33" stroke="#B6CF00" stroke-width="0.2"></path>
                <path d="M303.457,97.854 C314.75,97.854 375.686,99.123 375.788,80.723 C375.886,62.925 315.108,63.119 303.935,63.119 C292.695,63.119 231.507,62.833 231.605,80.723 C231.698,97.733 294.54,99.919 303.457,97.854" id="path35" fill="#E6E6E6"></path>
                <path d="M303.457,97.854 C314.75,97.854 375.686,99.123 375.788,80.723 C375.886,62.925 315.108,63.119 303.935,63.119 C292.695,63.119 231.507,62.833 231.605,80.723 C231.708,98.952 292.57,97.876 303.935,98.331" id="path37" stroke="#B6CF00" stroke-width="0.2"></path>
                <path d="M78.38,108.323 C71.255,112.469 72.195,121.212 72.195,128.463 L72.195,193.287 L72.195,331.974 C45.628,322.82 26.989,308.076 26.989,278.915 C26.989,271.07 29.893,264.76 21.994,262.502 C17.163,261.117 12.4,258.565 8.905,254.885 C-1.518,243.909 1.767,227.296 1.767,213.486 C11.187,226.776 -2.654,246.967 15.569,258.218 L15.569,60.262 C19.537,62.268 24.235,63.494 28.416,62.642 C25.707,67.633 27.407,76.171 26.989,81.676 C25.515,101.072 26.989,121.122 26.989,140.551 L26.989,242.065 C26.989,258.125 21.426,286.249 30.318,299.139 L30.318,82.626 C40.756,94.825 61.411,102.585 77.43,100.234 C74.644,103.467 76.398,107.137 78.38,108.323" id="path39" opacity="0.25" fill="#F3F3F3"></path>
                <path d="M30.318,60.262 C18.012,71.802 50.517,86.058 57.443,80.246 C47.213,77.953 29.719,73.406 30.318,60.262" id="path43" opacity="0.25" fill="#F3F3F3"></path>
                <path d="M7.955,31.711 C-2.062,39.209 22.493,52.348 30.318,47.889 C21.596,45.772 7.92,41.472 7.955,31.711" id="path45" opacity="0.25" fill="#F3F3F3"></path>
                <path d="M174.979,50.745 C184.775,56.187 193.834,59.251 204.959,59.786 C200.08,67.527 175.46,59.658 174.979,50.745" id="path47" opacity="0.25" fill="#F3F3F3"></path>
                <path d="M138.338,20.765 C146.345,25.041 154.521,25.822 162.607,28.856 C158.422,34.575 139.507,27.933 138.338,20.765" id="path49" opacity="0.25" fill="#F3F3F3"></path>
                <path d="M77.904,122.123 C78.006,173.165 78.106,224.205 78.208,275.248 C78.259,301.466 78.312,327.685 78.363,353.898 C78.382,362.63 80.587,366.966 86.946,372.421 L86.946,239.758 L86.946,156.064 C86.947,141.631 92.08,128.403 77.904,122.123" id="path51" opacity="0.25" fill="#F3F3F3"></path>
                <path d="M195.917,23.621 C207.999,23.621 249.241,26.399 255.872,13.153 C260.631,3.653 203.119,0.649 197.477,0.379 C189.406,-0.007 135.958,0.388 135.958,12.201 C135.958,23.618 188.902,24.882 195.917,23.621" id="path53" fill="#CCCCCC"></path>
                <path d="M195.917,23.621 C207.999,23.621 249.241,26.399 255.872,13.153 C260.631,3.653 203.119,0.649 197.477,0.379 C188.075,-0.07 139.162,-0.595 136.198,11.248 C133.256,22.998 188.732,23.736 195.917,24.097" id="path55" stroke="#B6CF00" stroke-width="0.4"></path>
                <path d="M71.243,29.808 C79.405,29.808 133.401,30.984 133.104,17.435 C132.815,4.361 80.053,5.063 71.719,5.063 C63.054,5.063 10.576,4.252 10.335,17.436 C10.102,30.066 65.03,31.327 71.243,29.808" id="path57" fill="#CCCCCC"></path>
                <path d="M71.243,29.808 C79.405,29.808 133.401,30.984 133.104,17.435 C132.815,4.361 80.053,5.063 71.719,5.063 C63.054,5.063 10.576,4.252 10.335,17.436 C10.088,30.838 63.148,29.875 71.719,30.282" id="path59" stroke="#B6CF00" stroke-width="0.4"></path>
                <path d="M101.696,64.067 C111.164,64.067 168.636,64.869 168.792,49.792 C168.95,34.422 107.81,34.794 98.32,35.208 C91.608,35.5 30.242,37.717 35.553,50.982 C41.683,66.29 90.604,64.067 101.696,64.067" id="path61" fill="#CCCCCC"></path>
                <path d="M101.696,64.067 C111.164,64.067 168.636,64.869 168.792,49.792 C168.946,34.991 110.282,34.687 101.034,35.088 C92.034,35.482 34.924,34.808 35.077,49.792 C35.231,64.753 93.097,64.067 102.173,64.067" id="path63" stroke="#B6CF00" stroke-width="0.4"></path>
                <path d="M238.27,55.503 C251.602,55.503 296.738,58.089 302.984,42.417 C308.467,28.659 246.713,26.952 239.409,26.952 C228.562,26.952 176.793,25.035 173.789,40.038 C170.67,55.615 229.365,55.503 238.27,55.503" id="path65" fill="#CCCCCC"></path>
                <path d="M238.27,55.503 C251.602,55.503 296.738,58.089 302.984,42.417 C308.467,28.659 246.713,26.952 239.409,26.952 C228.562,26.952 176.793,25.035 173.789,40.038 C170.67,55.615 229.365,55.503 238.27,55.503" id="path67" stroke="#B6CF00" stroke-width="0.4"></path>
                <path d="M152.613,104.515 C164.956,104.057 228.426,104.71 228.274,85.481 C228.12,66.716 165.43,66.447 153.089,66.447 C140.791,66.447 77.582,66.837 77.429,85.481 C77.271,104.625 142.009,104.009 152.613,104.515" id="path69" fill="#CCCCCC"></path>
                <path d="M152.613,104.515 C164.956,104.057 228.426,104.71 228.274,85.481 C228.12,66.716 165.43,66.447 153.089,66.447 C140.791,66.447 77.582,66.837 77.429,85.481 C77.27,104.499 140.795,104.041 153.089,104.515" id="path71" stroke="#B6CF00" stroke-width="0.4"></path>
                <path d="M303.457,92.619 C314.727,92.619 375.886,93.286 375.788,75.014 C375.695,57.846 315.047,57.423 303.935,57.407 C292.754,57.39 231.698,57.779 231.605,75.014 C231.503,93.379 293.843,92.619 303.457,92.619" id="path73" fill="#CCCCCC"></path>
                <path d="M303.457,92.619 C314.727,92.619 375.886,93.286 375.788,75.014 C375.695,57.846 315.047,57.423 303.935,57.407 C292.754,57.39 231.698,57.779 231.605,75.014 C231.507,93.28 292.611,92.619 303.935,92.619" id="path75" stroke="#B6CF00" stroke-width="0.4"></path>
                <path d="M103.602,10.774 C111.765,11.643 144.505,17.647 121.983,24.081 C116.992,25.505 109.086,19.266 102.649,19.815 C109.485,18.451 112.387,10.99 103.602,10.774" id="path77" fill="#B3B3B3"></path>
                <path d="M133.104,41.704 C140.864,43.589 179,47.023 158.325,56.93 C145.068,63.283 144.742,49.223 133.104,51.695 C141.512,50.01 140.719,42.396 133.104,41.704" id="path79" fill="#B3B3B3"></path>
                <path d="M193.063,75.488 C200.229,76.924 240.346,82.783 221.066,93.307 C206.419,101.3 210.145,89.278 198.769,91.193 C203.789,85.637 200.369,76.722 193.063,75.488" id="path81" fill="#B3B3B3"></path>
                <path d="M158.325,94.048 C162.845,104.063 192.38,100.924 197.823,92.619 C208.232,76.736 179.76,79.672 170.696,81.199 C163.386,82.431 158.911,84.22 151.188,84.055 C144.724,83.918 130.762,81.827 125.966,87.384 C116.602,98.24 153.539,95.421 158.325,94.048" id="path83" fill="#E6E6E6"></path>
                <path d="M158.325,94.048 C162.24,102.726 192.241,101.892 197.107,93.809 C207.26,76.929 182.589,78.885 171.172,81.199 C164.136,82.626 159.906,84.055 152.614,84.055 C144.561,84.055 134.343,82.361 127.156,86.671 C112.002,95.758 152.97,94.523 158.8,94.523" id="path85" stroke="#B6CF00" stroke-width="0.1"></path>
                <path d="M190.684,84.055 C185.187,84.055 157.222,88.255 173.075,94.048 C178.7,96.104 201.387,91.497 191.158,84.055" id="path87" stroke="#B6CF00" stroke-width="0.2"></path>
                <path d="M307.269,82.625 C311.042,92.368 339.273,89.131 344.384,81.198 C353.98,66.3 327.543,68.927 318.686,70.255 C311.832,71.282 307.468,73.273 300.13,73.109 C294.178,72.974 280.037,70.918 275.859,76.441 C268.289,86.448 301.259,83.995 307.269,82.625" id="path89" fill="#E6E6E6"></path>
                <path d="M307.269,82.625 C311.042,92.368 339.273,89.131 344.384,81.198 C353.98,66.3 327.543,68.927 318.686,70.255 C311.832,71.282 307.468,73.273 300.13,73.109 C292.733,72.942 283.634,71.779 277.049,75.727 C263.271,83.99 301.887,83.102 307.269,83.102" id="path91" stroke="#B6CF00" stroke-width="0.1"></path>
                <path d="M337.721,73.109 C329.215,73.109 323.57,71.575 317.733,77.393 C313.514,81.601 317.743,82.625 321.777,82.625 C325.163,82.625 349.663,80.14 337.721,73.109" id="path93" stroke="#B6CF00" stroke-width="0.2"></path>
                <path d="M246.355,47.413 C257.405,66.085 303.704,31.993 257.303,37.42 C249.961,38.28 228.064,37.467 222.088,41.941 C211.926,49.551 241.895,48.328 246.355,47.413" id="path95" fill="#E6E6E6"></path>
                <path d="M246.355,47.413 C257.405,66.085 303.704,31.993 257.303,37.42 C249.961,38.28 228.064,37.467 222.088,41.941 C211.898,49.571 241.151,47.889 246.355,47.889" id="path97" stroke="#B6CF00" stroke-width="0.1"></path>
                <path d="M271.101,39.799 C266.398,39.799 247.164,41.936 256.352,47.412 C260.928,50.143 278.244,46.932 271.58,39.799" id="path99" stroke="#B6CF00" stroke-width="0.2"></path>
                <path d="M99.317,56.93 C103.167,64.863 125.608,62.039 130.961,56.693 C143.689,43.985 116.007,46.462 110.501,46.462 C105.062,46.462 76.453,47.492 73.147,51.695 C66.261,60.446 95.342,58.141 99.317,56.93" id="path101" fill="#E6E6E6"></path>
                <path d="M99.317,56.93 C103.167,64.863 125.608,62.039 130.961,56.693 C143.689,43.985 116.007,46.462 110.501,46.462 C105.306,46.462 99.464,48.841 93.609,48.841 C87.794,48.841 78.996,47.315 74.098,50.981 C62.894,59.371 94.185,57.406 99.794,57.406" id="path103" stroke="#B6CF00" stroke-width="0.1"></path>
                <path d="M125.489,48.842 C121.421,48.842 108.692,46.567 107.884,53.601 C107.529,56.703 107.664,56.931 111.927,56.931 C116.306,56.931 134.007,56.567 125.965,48.843" id="path105" stroke="#B6CF00" stroke-width="0.2"></path>
                <path d="M71.243,23.621 C74.889,30.187 94.448,28.493 99.557,23.384 C110.54,12.401 87.254,13.292 81.713,14.103 C74.582,15.145 55.369,13.625 49.354,17.912 C37.514,26.351 65.048,24.345 71.243,23.621" id="path107" fill="#E6E6E6"></path>
                <path d="M71.243,23.621 C74.889,30.187 94.448,28.493 99.557,23.384 C110.54,12.401 87.254,13.292 81.713,14.103 C74.582,15.145 55.369,13.625 49.354,17.912 C37.514,26.351 65.048,24.345 71.243,23.621" id="path109" stroke="#B6CF00" stroke-width="0.1"></path>
                <path d="M95.035,16.006 C88.838,16.006 71.654,18.968 81.712,23.62 C86.75,25.951 101.051,22.818 95.035,16.006" id="path111" stroke="#B6CF00" stroke-width="0.2"></path>
                <path d="M203.055,17.912 C206.931,23.656 224.724,23.144 229.227,18.386 C239.808,7.201 220.305,8.868 213.761,8.868 C208.464,8.868 203.561,10.918 197.823,10.774 C193.264,10.66 186.046,9.554 182.118,12.201 C170.412,20.091 197.817,18.778 203.055,17.912" id="path113" fill="#E6E6E6"></path>
                <path d="M203.055,17.912 C206.931,23.656 224.724,23.144 229.227,18.386 C239.808,7.201 220.305,8.868 213.761,8.868 C208.464,8.868 203.561,10.918 197.823,10.774 C193.264,10.66 186.046,9.554 182.118,12.201 C170.412,20.091 197.817,18.778 203.055,17.912" id="path115" stroke="#B6CF00" stroke-width="0.1"></path>
                <path d="M225.42,10.774 C222.284,10.774 211.233,8.987 210.192,14.58 C209.592,17.798 210.099,17.913 213.76,17.913 C218.064,17.912 232.391,17.633 225.42,10.774" id="path117" stroke="#B6CF00" stroke-width="0.2"></path>
                <path d="M354.854,68.351 C359.004,71.304 359.789,77.107 354.375,78.344 C356.676,81.19 356.895,84.415 354.854,87.384 C359.599,85.549 372.453,83.588 373.646,77.631 C374.738,72.219 358.473,69.167 354.854,68.351" id="path119" fill="#B3B3B3"></path>
                <path d="M292.04,36.469 C295.642,43.512 286.668,49.313 280.617,50.745 C292.394,50.778 312.858,44.125 292.04,36.469" id="path121" fill="#B3B3B3"></path>
                <path d="M245.882,9.821 C248.739,13.334 247.852,17.316 243.502,18.861 C252.294,18.72 257.582,10.549 245.882,9.821" id="path123" fill="#B3B3B3"></path>
                <path d="M373.408,76.44 C355.485,63.347 326.633,63.118 305.362,63.118 C281.026,63.118 254.236,63.956 233.032,76.917" id="path125" stroke="#B6CF00" stroke-width="0.1"></path>
                <path d="M227.321,86.434 C208.464,73.574 176.92,71.636 154.631,72.179 C129.207,72.8 101.169,71.959 79.809,87.384" id="path127" stroke="#B6CF00" stroke-width="0.1"></path>
                <path d="M167.366,51.222 C149.242,39.574 122.941,40.099 102.173,39.8 C82,39.508 54.007,38.493 36.982,51.222" id="path129" stroke="#B6CF00" stroke-width="0.1"></path>
                <path d="M302.031,41.704 C285.292,29.882 258.776,30.482 239.218,30.758 C218.171,31.056 193.357,31.082 174.98,42.654" id="path131" stroke="#B6CF00" stroke-width="0.1"></path>
                <path d="M254.925,13.153 C222.638,-1.357 169.118,-0.811 136.912,13.627" id="path133" stroke="#B6CF00" stroke-width="0.1"></path>
                <path d="M131.2,18.386 C100.567,3.392 42.614,3.741 11.761,17.912" id="path135" stroke="#B6CF00" stroke-width="0.1"></path>
                <path d="M12.713,13.627 C8.97,19.694 5.68,28.023 5.099,34.567 C4.846,37.422 6.13,40.598 5.576,43.131 C5.034,45.603 2.448,47.128 1.767,50.269 C-0.598,61.164 1.767,75.045 1.767,86.007 L1.767,179.553 L1.767,240.638 C1.767,255.211 26.989,260.067 26.989,267.841 C26.989,291.034 26.136,302.554 44.647,317.978 C51.362,323.578 59.613,327.779 67.911,330.543 C75.45,333.062 72.23,349.726 74.204,357.616 C83.586,395.122 143.842,400.973 174.502,395.499 C193.709,392.068 213.505,383.774 225.656,367.9 C232.125,359.452 233.71,350.738 247.306,355.289 C257.223,358.606 265.122,366.502 276.094,369.346 C313.916,379.15 351.956,369.341 372.222,335.543 C383.751,316.309 380.545,291.41 380.545,269.918 L380.545,100.582 C380.545,92.61 379.164,85.038 377.691,77.867 C374.582,62.739 352.1,60.489 338.197,58.833 C331.277,58.008 315.904,60.546 310.119,57.407 C305.5,54.9 307.168,52.532 306.313,48.366 C305.388,43.861 305.639,39.335 301.555,35.517 C295.695,30.043 282.033,29.327 274.43,28.379 C265.875,27.312 263.315,28.651 259.68,22.671 C254.805,14.652 260.795,9.128 248.732,5.776 C229.737,0.5 210.3,-0.002 190.684,0.304 C176.023,0.534 159.61,1.129 145.765,6.403 C132.772,11.352 142.788,18.661 135.959,25.049 C135.043,24.215 134.644,23.441 134.057,22.67 C131.982,19.938 136.108,16.229 132.33,14.068 C129.3,12.338 126.986,11.118 123.71,10.077 C112.397,6.477 100.68,5.611 88.851,5.062 C64.679,3.942 34.915,3.224 12.714,14.103" id="path137" stroke="#B6CF00" stroke-width="0.4"></path>
            </g>
        </g>
    </g>
</svg>
