<svg xmlns="http://www.w3.org/2000/svg" xmlns:xlink="http://www.w3.org/1999/xlink" version="1.1" id="Your_Icon" x="0px" y="0px" width="100px" height="100px" viewBox="0 0 100 100" enable-background="new 0 0 100 100" xml:space="preserve">
<g>
	<path fill="#000000" d="M82.957,24.253c-5.195-0.925-14.82-1.896-32.533-1.896c-17.714,0-27.246,0.968-32.441,1.896   C17.92,25.121,18,26.031,18,27.024c0,10.047,0,46.721,0,57.449c5,0.933,14.665,1.916,32.5,1.916S78,85.406,83,84.476   c0-10.726,0-47.404,0-57.451C83,26.031,83.021,25.121,82.957,24.253z"/>
	<path fill="#000000" d="M18.356,89.431c1.098,2.087,3.529,3.737,5.035,4.562c1.993,1.084,2.355,1.993,2.536,3.077   c0.182,1.086,5.523,2.897,24.531,2.897c19.009,0,24.353-1.812,24.533-2.897c0.179-1.084,0.543-1.993,2.53-3.077   c1.509-0.824,3.94-2.475,5.039-4.564c-6.217,0.999-16.148,1.722-32.102,1.722C34.503,91.149,24.573,90.427,18.356,89.431z"/>
	<path fill="#000000" d="M82.211,19.26c-1.401-5.105-4.012-6.924-5.049-8.351c-1.45-1.991-1.608-2.354-1.608-3.983   c0-1.619-2.521-2.603-6.09-3.208c0.006-0.031,0.026-0.059,0.028-0.089c0.103-1.757-3.223-3.382-7.434-3.63   c-4.206-0.249-7.703,0.973-7.807,2.73C54.25,2.745,54.261,2.76,54.26,2.776c-1.371-0.01-2.662-0.01-3.802-0.01   c-8.504,0-25.096,0-25.096,4.16c0,1.629-0.159,1.993-1.606,3.983c-1.039,1.427-3.652,3.246-5.05,8.351   c6.239-0.965,16.104-1.662,31.752-1.662S75.971,18.294,82.211,19.26z"/>
</g>
</svg>