<svg xmlns="http://www.w3.org/2000/svg" xmlns:xlink="http://www.w3.org/1999/xlink" version="1.1" x="0px" y="0px" width="100px" height="100px" viewBox="0 0 100 100" enable-background="new 0 0 100 100" xml:space="preserve">
<g id="Captions">
</g>
<g id="Your_Icon">
	<path fill="#B6CF00" d="M59.209,14.418H25.135c-1.732,0-3.14,1.408-3.14,3.14c0,1.737,1.407,3.146,3.14,3.146h34.074   c1.737,0,3.143-1.408,3.143-3.146C62.352,15.826,60.946,14.418,59.209,14.418z"/>
	<path fill="#B6CF00" d="M59.209,27.176H25.135c-1.732,0-3.14,1.407-3.14,3.145s1.407,3.145,3.14,3.145h34.074   c1.737,0,3.143-1.407,3.143-3.145S60.946,27.176,59.209,27.176z"/>
	<path fill="#B6CF00" d="M59.209,39.938H25.135c-1.732,0-3.14,1.408-3.14,3.145c0,1.737,1.407,3.14,3.14,3.14h34.074   c1.737,0,3.143-1.402,3.143-3.14C62.352,41.346,60.946,39.938,59.209,39.938z"/>
	<path fill="#B6CF00" d="M61.033,52.564c-0.521-0.383-1.128-0.654-1.824-0.654H25.135c-1.732,0-3.14,1.402-3.14,3.14   s1.407,3.145,3.14,3.145h29.253C56.206,55.918,58.461,53.998,61.033,52.564z"/>
	<path fill="#B6CF00" d="M49.603,70.7h-3.336H13.249V10.013c0-3.192,2.593-5.793,5.787-5.793h56.876   c-1.531,2.429-2.485,6.102-2.527,11.345c-0.014,0.115-0.023,0.235-0.023,0.34v33.85c1.323,0.068,2.613,0.251,3.866,0.539V15.904   h14.882c0-11.354-4.191-15.546-9.366-15.546H19.036c-5.321,0-9.651,4.327-9.651,9.654V70.7H9.366H0   c0,14.175,5.229,16.32,11.689,16.32h7.347h36.435c-3.673-3.966-5.934-9.235-5.934-15.038C49.537,71.553,49.576,71.129,49.603,70.7z   "/>
	<g>
		<path fill="#B6CF00" d="M77.45,55.05c-12.451,0-22.55,9.979-22.55,22.296s10.099,22.296,22.55,22.296    c12.456,0,22.55-9.979,22.55-22.296S89.906,55.05,77.45,55.05z M81.391,81.223v13.354h-7.844V81.223H60.041v-7.755h13.506V60.114    h7.844v13.354h13.505v7.755H81.391z"/>
	</g>
</g>
</svg>
